/* XPM */
static char *d3b2630f5eab4cec92c23826f5ddd71amh10dy8hoVzXHWNz[] = {
/* columns rows colors chars-per-pixel */
"32 32 94 2 ",
"   c #679E32",
".  c #679F32",
"X  c #6CA534",
"o  c #73B038",
"O  c #69A133",
"+  c #70AC37",
"@  c #6BA434",
"#  c #6AA233",
"$  c #6BA334",
"%  c #71AD37",
"&  c #77B73A",
"*  c #77B63A",
"=  c #6DA735",
"-  c #6AA334",
";  c #6FAA36",
":  c #79B93B",
">  c #7DBF3D",
",  c #82C63F",
"<  c #79BA3B",
"1  c #78B83B",
"2  c #73B138",
"3  c #69A033",
"4  c #69A233",
"5  c #7BBB3C",
"6  c #81C53F",
"7  c #7BBC3C",
"8  c #6EA835",
"9  c #74B239",
"0  c #76B439",
"q  c #80C33E",
"w  c #72AE37",
"e  c #6CA635",
"r  c #78B73A",
"t  c #7DBE3D",
"y  c #77B53A",
"u  c #6FA936",
"i  c #7DBE3C",
"p  c #70AB36",
"a  c #83C840",
"s  c #81C43E",
"d  c #75B339",
"f  c #75B239",
"g  c #80C43E",
"h  c #7ABA3B",
"j  c #7EC13D",
"k  c #76B53A",
"l  c #87CD41",
"z  c #7CBD3C",
"x  c #7EC03D",
"c  c #82C73F",
"v  c #75B439",
"b  c #79B83B",
"n  c #7ABB3C",
"m  c #80C23E",
"M  c #6DA635",
"N  c #6EA936",
"B  c #6DA835",
"V  c #7FC23E",
"C  c #84C840",
"Z  c #72AF37",
"A  c #7CBE3D",
"S  c #6FAB36",
"D  c #84C940",
"F  c #7BBD3C",
"G  c #71AE37",
"H  c #71AC37",
"J  c #7ABB3B",
"K  c #88CF42",
"L  c #85CA40",
"P  c #85CB41",
"I  c #83C73F",
"U  c #7FC13D",
"Y  c #7FC13E",
"T  c #81C43F",
"R  c #73AF38",
"E  c #76B539",
"W  c #87CE41",
"Q  c #72AF38",
"!  c #6BA534",
"~  c #74B238",
"^  c #8BD343",
"/  c #86CB41",
"(  c #86CC41",
")  c #82C53F",
"_  c #689F32",
"`  c #70AC36",
"'  c #74B138",
"]  c #7CBE3C",
"[  c #6EA935",
"{  c #88CE42",
"}  c #8AD243",
"|  c #85CB40",
" . c #89D042",
".. c white",
/* pixels */
"  . X o X O + @ # $ % & * = - ; = : > , , < 1 & 2 + 3 - @ # 4   ",
"O # 5 6 7 8 9 : < 0 $ @ ; q w e r t q > 1 = X = w # X t q 7 * X ",
"y e u i p 7 , a s d e f : 5 8 o g s h j = p d k d X d t a l > * ",
"z x 2 w @ ; g c > z v ; b z h n z t s m M $ X e N + B * 7 z > = ",
"x V d 8 r h z z > C Z * * g 6 > A A > t h b 1 n , 0 S e + = Z O ",
"c w > 7 6 , > z h x x 6 A > x V m 6 , D c > 7 F > b 8 G B p + # ",
"e Z z A > , , > H J w q a a x p p F V K L V 5 7 z z h q > = $ ; ",
"# 2 m , > > 7 H y % & A a P o x m q I L U % v 7 6 6 A A z k % X ",
"+ w k , 6 q 6 z Y V z 7 A A n T : % q q R x 6 > A z : : r M 2 h ",
"@ e E x y R g x p r : h : z t 7 + k * z V I a 6 h r e @ w = 7 W ",
"k h g ; * 6 : = p @ - p = x q q > t 1 h h h 7 r e % + e r > W V ",
"X d M . O @ O 3 Q w e $ @ d S w + m p + ! @ ~ = # X 2 1 A K ^ x ",
"  - - - O O O 4 * h I n z / * 8 w % y u % e s 5 < h n 7 7 Y ( 7 ",
"# w > m 5 h r 8 r % 7 A c ( Z x s x , s z u * z 6 6 z 7 7 b d = ",
"+ w y , 6 q ) z U V z 7 A A n T : % q g o j 6 > A z : : r e o h ",
"@ e E x y R g x p r : h : z t 7 + k * z V I a 6 h r e @ w = 7 W ",
"k h g ; * 6 : = p @ - p = x q q > t 1 h h h 7 r e % + e r > W V ",
"X d = _ 4 @ O O Q w e $ ! d S w H m ` + ! @ ~ = # X ' 1 t K ^ x ",
"  O   _     _ O v < , n n ) k X u p 0 u % N , 5 r r r 1 b ] L 7 ",
"    ! w @ 3 ; @ ! = 9 1 r H e u = * A V m r h 1 9 w @ e = e = # ",
"O # 7 6 7 [ 9 : < 0 - @ ; q w e r t q x 1 = X = w # X t q 7 y ! ",
"y e u i p 7 , a s d e f : 5 8 o g s h j = p d k d X d t a l > * ",
"z x 2 w @ ; g c > z v ; b z h n z t s m M $ X e N + B * 7 z > = ",
"x V d 8 r h z z > C Z * * g 6 > A A > t h b 1 n , 0 S e + = Z O ",
"c w > 7 6 , > z h x x 6 A > x V m 6 , D c > 7 F > b 8 G B p + # ",
"e Z z A > , , > H J w q a a x p p F V K L V 5 7 z z h q > = $ ; ",
"# 2 m , > > 7 H y % & A a P o x m q I L U % v 7 6 6 A A z k % X ",
"+ w k , 6 q 6 z Y V z 7 A A n T : % q q R x 6 > A z : : r M 2 h ",
"@ e E x y R g x p r : h : z t 7 + k * z V I a 6 h r e @ w = 7 W ",
"k h g ; * 6 : = p @ - p = x q q > t 1 h h h 7 r e % + e r > W V ",
"X d = _ 4 @ O O Q w e $ ! d S w + m ` H X @ ~ = # X ' 1 A { } > ",
"  O           O r z D h n | 1 @ ; u d X u e I n 1 1 h 7 7 V  .x "
};
