/* XPM */
static char *collectible_xpm[] = {
/* columns rows colors chars-per-pixel */
"32 32 94 2 ",
"   c None",
".  c black",
"X  c #020101",
"o  c #050403",
"O  c #1D0806",
"+  c #1F0806",
"@  c #1F0807",
"#  c #1F0907",
"$  c #131313",
"%  c gray8",
"&  c #151515",
"*  c #161616",
"=  c #200806",
"-  c #210907",
";  c #220907",
":  c #350D0A",
">  c #350E0B",
",  c #3A0F0B",
"<  c #3A100D",
"1  c #3A120F",
"2  c #2B1817",
"3  c #391310",
"4  c #3F1C1A",
"5  c #202020",
"6  c #242222",
"7  c gray14",
"8  c #252525",
"9  c #2C2A2A",
"0  c #382524",
"q  c #3B2625",
"w  c #3A2726",
"e  c #313131",
"r  c gray20",
"t  c #411C19",
"y  c #401E1B",
"u  c #464646",
"i  c #605F5E",
"p  c #797979",
"a  c #7A7B7B",
"s  c #7B7B7B",
"d  c #7B7C7D",
"f  c #7C7D7D",
"g  c gray49",
"h  c gray50",
"j  c #BE3328",
"k  c #BF3328",
"l  c #BC342A",
"z  c #BF342A",
"x  c #BC362C",
"c  c #C3342A",
"v  c #C2352B",
"b  c #C3352B",
"n  c #C3362B",
"m  c #C3372C",
"M  c #C6382E",
"N  c #D63A2F",
"B  c #D63D31",
"V  c #D93D31",
"C  c #DA3C30",
"Z  c #C3463D",
"A  c #C8483E",
"S  c #F24235",
"D  c #F24236",
"F  c #F44235",
"G  c #F44336",
"H  c #F54336",
"J  c #F74437",
"K  c #F24438",
"L  c #F44538",
"P  c #F64538",
"I  c #DB4D42",
"U  c #F75448",
"Y  c #DB635A",
"T  c #DD635A",
"R  c #F76B60",
"E  c #F86B61",
"W  c gray54",
"Q  c #8C8D8D",
"!  c #8D8D8D",
"~  c gray56",
"^  c gray59",
"/  c #979797",
"(  c #9B9B9B",
")  c #BDBFBF",
"_  c gray80",
"`  c #D0D0D0",
"'  c gainsboro",
"]  c #F9C6C2",
"[  c #FAC6C2",
"{  c #FDC7C3",
"}  c #FFC8C3",
"|  c #E2E3E3",
" . c #F1F1F1",
".. c #FFF9F8",
/* pixels */
"                                                                ",
"                                                                ",
"                                                                ",
"                                                                ",
"                                                                ",
"                                                                ",
"                                                                ",
"                                                                ",
"                                                                ",
"                                                                ",
"                                                                ",
"                                                                ",
"                                                                ",
"                                                                ",
"                          = = = ;                               ",
"                      + 1 Z B B m < =                           ",
"                    + x T ] E P S C l =                         ",
"                    1 I } ..} U F J C 1                         ",
"                  = b K R ] Y N S J S b ;                       ",
"                  + z S P A 1 4 M F F l +                       ",
"                  . > b j :   p y c m 4 o                       ",
"                  .   q w 9 a h 6 2 w i $                       ",
"                    6 ) | _ u e h Q a 7                         ",
"                    % ~ '  .` ^ ( ~ a %                         ",
"                      % e W ( ~ h 8 %                           ",
"                          % % % %                               ",
"                                                                ",
"                                                                ",
"                                                                ",
"                                                                ",
"                                                                ",
"                                                                "
};
