/* XPM */
static char *collectible_xpm[] = {
/* columns rows colors chars-per-pixel */
"32 32 125 2 ",
"   c None",
".  c #010000",
"X  c #0B0000",
"o  c #0A0A0A",
"O  c #160000",
"+  c #1B0202",
"@  c #0D1010",
"#  c #151515",
"$  c #1A1A1A",
"%  c #230505",
"&  c #2F0000",
"*  c #270808",
"=  c #360000",
"-  c #3D0000",
";  c #262626",
":  c #2C2C2C",
">  c #323232",
",  c #3E3E3E",
"<  c #440000",
"1  c #4A0000",
"2  c #440A0A",
"3  c #4C0E0E",
"4  c #530000",
"5  c #580000",
"6  c #5A0808",
"7  c #591E1E",
"8  c #640000",
"9  c #6A0000",
"0  c #720000",
"q  c #7B0000",
"w  c #651313",
"e  c #6D1414",
"r  c #721616",
"t  c #442626",
"y  c #474747",
"u  c #4A4A4A",
"i  c #554D4D",
"p  c #545454",
"a  c #5A5A5A",
"s  c #734B4B",
"d  c #606060",
"f  c #6C6C6C",
"g  c #747474",
"h  c #7B7B7B",
"j  c #830000",
"k  c #8B0000",
"l  c #940000",
"z  c #9E0000",
"x  c #901616",
"c  c #971D1D",
"v  c #9C1C1C",
"b  c #A50000",
"n  c #A90101",
"m  c #B40C0C",
"M  c #BA0F0F",
"N  c #AE1313",
"B  c #A11E1E",
"V  c #BC1414",
"C  c #9F352E",
"Z  c #AD2121",
"A  c #BA2424",
"S  c #B53831",
"D  c #C51D1D",
"F  c #CA1F1F",
"G  c #C52626",
"H  c #CD2526",
"J  c #D12727",
"K  c #D22728",
"L  c #D12929",
"P  c #D53532",
"I  c #D63934",
"U  c #D34137",
"Y  c #D7463C",
"T  c #DC473E",
"R  c #DE4E43",
"E  c #DF5246",
"W  c #E15447",
"Q  c #E05A4F",
"!  c #E66554",
"~  c #E46658",
"^  c #E6755D",
"/  c #E67162",
"(  c #EE7B64",
")  c #E97C6D",
"_  c #F18469",
"`  c #F48C6F",
"'  c #F58F70",
"]  c #F59071",
"[  c #F89776",
"{  c #F99877",
"}  c #F99978",
"|  c #7E8080",
" . c #838383",
".. c #8E8686",
"X. c #8D8D8D",
"o. c #929292",
"O. c gray61",
"+. c gray71",
"@. c #BCBCBC",
"#. c #F7A68C",
"$. c #F8A98F",
"%. c #F6AB95",
"&. c #F8B49D",
"*. c #F6B6A3",
"=. c #F7BBA7",
"-. c #F8BEAB",
";. c #C6C6C6",
":. c #CECECE",
">. c #D5D5D5",
",. c #DDDDDD",
"<. c gray85",
"1. c #E2E2E2",
"2. c gray89",
"3. c gray90",
"4. c #E4E4E4",
"5. c #EEEEEE",
"6. c #EFEFEF",
"7. c #ECECEC",
"8. c #F8EFEC",
"9. c #F8F2EF",
"0. c #F1F1F1",
"q. c #F8F7F6",
"w. c #F8F9FA",
"e. c white",
"r. c #FAFAFA",
/* pixels */
"                      . . . . . . . . . .                       ",
"                      . . . . . . . . . .                       ",
"                    + = = = = = = = = = = +                     ",
"            . . . . = b b b b b b b b b b & . . . .             ",
"          . X . X . = n m n n n n n n b b = . X . X .           ",
"      . . 1 j j v B S ^ ^ U D D D H V n n k j q 8 8 = . .       ",
"      . . 4 n n F J T [ { W H J L L D b b n n b j j < . .       ",
"      . . 5 M D Y E / =.=.) E W L L D m m n n b l l < . .       ",
"      . . w K L _ } &.q.w.-.[ ` P L L L H m b n n n 4 . .       ",
"      X . e K P ( ] %.9.q.*.` _ P H J J H m n b n n 5 . X       ",
". . + j k N L L P I Q #.$.~ I I L L L L H m n n b n k 8 8 O . . ",
". . + b b V L L J J T [ } W L L L L L L J m b b n n l j q + . . ",
". . % N V D L L L J I ! ! C r r r r x V V n n n n n l j q O . . ",
". . * G L L L L J L L L K 3 . . . . < n n n n n b n l q q O . . ",
". . % Z A G L L L L G A A 7 $ $ # @ 2 l l b b b b b k 0 9 O . . ",
". . . + + r L L J L B + + ..,.:. .| i O O j n b k j 1 X O . . . ",
". . . . . w K L L K c . . O.e.6.O.o.a . . q n b j j - . . . . . ",
". . # h  .s w w e w 3 . . g ;.@.O.o.a . . = 5 4 - - t u y o . . ",
". . > 6.e.| . . . . . . . p o.o.o.o.p . . . . . . . u O.X.$ . . ",
". . : ;.>.h ; ; ; ; ; ; ; a h h h h p # # # # # # # u h g $ . . ",
"      # # h 3.2.4.2.2.2.4.d o o o o ,  . . . . . . .y o o       ",
"      . . h e.w.r.w.w.w.w.d . . . . > o.o.o.o.o.o.o.y . .       ",
"      . . a @.@.7.w.q.q.q.@.o.X.a a f o.X.X.o.X.o.o.y . .       ",
"      . . u o.o.3.e.r.w.w.w.e.0.O.o.o.o.o.o.o.o.o.o.y . .       ",
"      . . , g g +.;.:.3.4.2.3.,.O.X.o.o.o.h g g g g , . .       ",
"          o o o o o > o.O.o.o.o.o.o.X.X.X.: . o o o o           ",
"            . . . . ; X.X.X.X.o.X.X.X.o.X.; . . . .             ",
"                    $ > > > > > > > > > > $                     ",
"                      . . . . . . . . . .                       ",
"                      . . . . . . . . . .                       ",
"                                                                ",
"                                                                "
};
