/* XPM */
static char *eddddec29d314623cb8e3269ca7437faYipl5pDfOYVJKNHr[] = {
/* columns rows colors chars-per-pixel */
"32 32 143 2 ",
"   c None",
".  c #37213A",
"X  c #3C233F",
"o  c #3E2441",
"O  c #422745",
"+  c #432847",
"@  c #49274F",
"#  c #46294A",
"$  c #492B4D",
"%  c #4C2554",
"&  c #4D2953",
"*  c #4F2658",
"=  c #4F2858",
"-  c #502A57",
";  c #51265B",
":  c #512959",
">  c #4F3153",
",  c #503255",
"<  c #56365B",
"1  c #562761",
"2  c #592566",
"3  c #572863",
"4  c #5A2B64",
"5  c #5E266D",
"6  c #5E286C",
"7  c #5B3C60",
"8  c #60276E",
"9  c #602A6E",
"0  c #62316E",
"q  c #633F69",
"w  c #632673",
"e  c #652A74",
"r  c #6B2D71",
"t  c #672779",
"y  c #68277B",
"u  c #672878",
"i  c #6B2A7C",
"p  c #712F79",
"a  c #6E357D",
"s  c #6E3E79",
"d  c #733371",
"f  c #76317E",
"g  c #7B367C",
"h  c #7E397A",
"j  c #73417F",
"k  c #843E7B",
"l  c #864173",
"z  c #8B4476",
"x  c #8F4873",
"c  c #8C4479",
"v  c #964E71",
"b  c #994F75",
"n  c #914979",
"m  c #9A4E79",
"M  c #9E597C",
"N  c #A25773",
"B  c #AE6074",
"V  c #AE657E",
"C  c #B76677",
"Z  c #B96778",
"A  c #C26D79",
"S  c #C5717A",
"D  c #CC757B",
"F  c #D27A7C",
"G  c #D87D7D",
"H  c #6F2B81",
"J  c #722C85",
"K  c #752F88",
"L  c #743285",
"P  c #783F87",
"I  c #763288",
"U  c #79368B",
"Y  c #773888",
"T  c #7C3B8C",
"R  c #7F3E90",
"E  c #774484",
"W  c #7A4387",
"Q  c #784982",
"!  c #7C428C",
"~  c #7D4C8A",
"^  c #7C5184",
"/  c #7F5388",
"(  c #81498E",
")  c #815E87",
"_  c #9A5A8A",
"`  c #854695",
"'  c #844B92",
"]  c #884997",
"[  c #8B4E99",
"{  c #855392",
"}  c #885693",
"|  c #8A5997",
" . c #8E529C",
".. c #8E5B99",
"X. c #91569E",
"o. c #925C9E",
"O. c #8C6595",
"+. c #8A6D93",
"@. c #906797",
"#. c #92619C",
"$. c #966D9C",
"%. c #965DA2",
"&. c #9B62A7",
"*. c #9A6CA3",
"=. c #9D66A8",
"-. c #9E6CA9",
";. c #9B72A3",
":. c #A36EAD",
">. c #A073A7",
",. c #A273AB",
"<. c #A579AC",
"1. c #A87AAF",
"2. c #A672B0",
"3. c #A875B2",
"4. c #AD7DB6",
"5. c #AF7EB8",
"6. c #9F80A8",
"7. c #A383AB",
"8. c #AC81B3",
"9. c #AB8AB3",
"0. c #B181B9",
"q. c #AE92B4",
"w. c #B193B9",
"e. c #B7ABBB",
"r. c #BBBCBC",
"t. c #DF8181",
"y. c #E08281",
"u. c #BCA6C0",
"i. c #D3CED4",
"p. c #DBD2DD",
"a. c #DDD3DF",
"s. c #E2DEE3",
"d. c #E6DFE8",
"f. c #E3E3E4",
"g. c #E7E8E6",
"h. c #E8E3E9",
"j. c #EAE5EB",
"k. c #EDEAEE",
"l. c #F1EEF1",
"z. c #F3F3F3",
"x. c #F7F6F7",
"c. c #F8F9F8",
"v. c white",
/* pixels */
"                                                )               ",
"      2                                       ..*.              ",
"      5 J ( @.                              i U }               ",
"        u K [ ,.;.                        i J I }               ",
"        1 H J ] 3.4.;.    P y i i i y t H J J T                 ",
"          e J J R 2.5.4.5.] H K J J J K J J J `                 ",
"          ; H J J U =.5.0.:.I H J J J J J J K o.                ",
"            e J J H K  .0.0.&.K J J J J J J U -.    $.$.        ",
"  Q         = i H J J Y ,.0.5.%.K J J J I I  .<.O.<.5.          ",
"    ! %.-.;.j e J J J J T =.0.0.%.I I ] :.:.3.1.8.5.#.          ",
"      i ` =.,.T J J J L L L =.0.0.2.:.5.0.0.8.7.0. .E           ",
"        i K ] R J J J W e.O.U =.0.0.0.0.0.5.u.9.] Y             ",
"        2 J J J J J J ! j.f.+.Y :.0.0.0.0.<.i.9.H a             ",
"          e J J J J H ! d.c.r.6.T 3.0.0.5.q.g.q.y               ",
"          1 J J J J J U a.v.x.z.6.` 5.:.%.p.k.;.H H 5           ",
"      e   9 J J J J J J w.h.l.x.s.~  .] W ;.( J J y             ",
"      9 i J J J J p p J J W ' | | L H J J J J i y               ",
"          u J J J J N c J J J J H J J J J L i i w               ",
"            9 J J J m F c p g g p I Y g T V l y                 ",
"              i J J L A Z Z D S n _ D S M F c       u X.<.      ",
"              e y J J k S y.y.y.D A y.t.F C r       i U ,.      ",
"              i J i J J k A D F G F N v v d       i i K %.,.    ",
"        #.i t H [ W i i L g h n m l f p y     w i 0 - 5 U :.;.  ",
"      >.%.J i y  ...H ` ..L J J J J J u     H J L ..7 # 9 [ ,.  ",
"      -.T 4 : e [ -.9 e ' { J J H i 1       J J i R ) # ; K f   ",
"       .e # # 6 ] ;.> # : s 9 4 &           - & @ : j < % i w   ",
"      ] 1 # # % Y ;.> $ $ $ # X                 O # & , @ 2 4 w ",
"      ! ;     O 4 ^ $ + # #                       O # X     & u ",
"              + & > X . o                                   % 5 ",
"              O #                                               ",
"              X                                                 ",
"                                                                "
};
