/* XPM */
static char *enemy_xpm[] = {
/* columns rows colors chars-per-pixel */
"32 32 122 2 ",
"   c None",
".  c #2F232F",
"X  c #362635",
"o  c #372835",
"O  c #382738",
"+  c #3A2A39",
"@  c #3E323D",
"#  c #5F2323",
"$  c #502429",
"%  c #59272C",
"&  c #5F2E2E",
"*  c #412936",
"=  c #4D2831",
"-  c #442B38",
";  c #443639",
":  c #50343A",
">  c #583A3D",
",  c #732721",
"<  c #6D3537",
"1  c #633A3C",
"2  c #453243",
"3  c #4A3447",
"4  c #483947",
"5  c #4F364C",
"6  c #4C3B4B",
"7  c #583642",
"8  c #51374D",
"9  c #553D52",
"0  c #593F54",
"q  c #643842",
"w  c #683C44",
"e  c #504550",
"r  c #5A4056",
"t  c #534853",
"y  c #5C4358",
"u  c #5E4C5C",
"i  c #64434A",
"p  c #744A4E",
"a  c #634B57",
"s  c #62455D",
"d  c #64485F",
"f  c #60525E",
"g  c #71535F",
"h  c #674460",
"j  c #654861",
"k  c #6D4D67",
"l  c #714B69",
"z  c #695C67",
"x  c #6C5C6B",
"c  c #71516B",
"v  c #7A5773",
"b  c #765D71",
"n  c #7B5975",
"m  c #7F5A78",
"M  c #6F666F",
"N  c #7D6979",
"B  c #747074",
"V  c #A03C30",
"C  c #A5483D",
"Z  c #805677",
"A  c #835C7B",
"S  c #84607D",
"D  c #806B7D",
"F  c #85727F",
"G  c #875F80",
"H  c #885F80",
"J  c #8D6485",
"K  c #866B81",
"L  c #886A83",
"P  c #906788",
"I  c #946B8C",
"U  c #877784",
"Y  c #8F7C80",
"T  c #8E7F8C",
"R  c #986F90",
"E  c #9C7394",
"W  c #A07797",
"Q  c #A07798",
"!  c #A37A9B",
"~  c #978082",
"^  c #958189",
"/  c #A48B94",
"(  c #AD84A4",
")  c #B48BAC",
"_  c #B88FAF",
"`  c #A395A1",
"'  c #A39EA2",
"]  c #BD9DA6",
"[  c #B88FB0",
"{  c #BD94B4",
"}  c #ACA0AB",
"|  c #B4AFB5",
" . c #BBB2BA",
".. c #BBBBBC",
"X. c #C097B8",
"o. c #C59CBC",
"O. c #C89FBF",
"+. c #C2B5BD",
"@. c #CBB9BA",
"#. c #C89FC0",
"$. c #CCA3C4",
"%. c #CFA8C8",
"&. c #D0A7C7",
"*. c #D0A7C8",
"=. c #D3AACB",
"-. c #D5C2C5",
";. c #D4CFD4",
":. c #D5D4D5",
">. c #E2DADF",
",. c #E4DDE3",
"<. c #E5E2E5",
"1. c #E5E3E5",
"2. c #E4E3E4",
"3. c #E6E3E6",
"4. c #E7E5E7",
"5. c #ECE7EB",
"6. c #EEEDEE",
"7. c #F2EFF2",
"8. c #F4F3F3",
"9. c #F5F2F5",
"0. c #FDFDFE",
"q. c white",
/* pixels */
"                                                                ",
"                              =.*.                              ",
"                              =.o.$.                            ",
"                              *.$.            =.                ",
"            $.        =.                                        ",
"          $.O.      =.=.=.=.                                    ",
"                =.=.=.=.=.=.  =.=.=.                            ",
"                *.$.{ ) ( $.=.=.=.=.=.                          ",
"              =.$.[ E J H R { $.$.O.$.=.      $.                ",
"          =.=.=.[ I c r j j m ! { _ { $.      O.                ",
"  =.    =.=.O.[ I 0 2 s Z A s 9 S P ( O.                        ",
"  =.    =.#.! P s X h Z H J A 3 2 A ( #.=.=.                    ",
"        =.[ P m 3 X 9 l Z A k O . y E { $.=.=.                  ",
"        =._ A N x O O 3 8 8 O z t ; G ! { $.=.                  ",
"  =.=.    o.A  .+.@ + O O X f ,.` O v J ! O.=.                  ",
"  *.#.    $.L ,.5.u O O O e ;.0.;.6 y J ! #.=.=.  =.$.=.        ",
"  =.$.    $.D 2.0.^ $ = : ..0.0.6.t 0 P ! $.=.    *.o.*.        ",
"        =.{ b :.0.-.< # Y 0.0.0.4.e 0 R ( $.*.    *.$.=.        ",
"        =.( v } 8.>.a 1 +.9.0.0. .O k ( { #.=.      =.          ",
"        $.( J N | ] w p @.4.0.8.^ X J { o.$.*.=.    $.          ",
"        $.{ ! n M g * - / 2.2.} 4 2 I ) o.%.=.=.=.  O.$.        ",
"        =.=.[ v B > % - 3 U F 2 X u E [ { $.=.=.                ",
"          =.O.A u 7 , V C ~ i . 6 G ! { #.o.%.          =.=.    ",
"            *.( J A s q & ; @ r J E [ #.$.$.=.        =.=.=.=.  ",
"            =.{ E Q P n r r m J E ) o.=.=.=.=.        =.O.o.&.  ",
"            =.$.( { { ( E J E I ! { =.=.=.=.=.        =.{ { $.  ",
"            =.$.$.$.=.&.{ E E ! ( $.                  =.$.O.=.  ",
"                =.=.  =.$.{ _ _ O.=.                    =.=.    ",
"                        =.=.$.$.*.      $.*.                    ",
"              =.          =.=.=.$.      #.$.                    ",
"              =.=.                      *.                      ",
"                                                                "
};
