/* XPM */
static char *_e8cbf5ccab74439c773eaa54a531145g1YM7aFpHEDuUaId[] = {
/* columns rows colors chars-per-pixel */
"32 32 190 2 ",
"   c None",
".  c #6F4E6B",
"X  c #7C4D67",
"o  c #645570",
"O  c #675C78",
"+  c #7C5C75",
"@  c #CF3E4F",
"#  c #D13F4F",
"$  c #CF3F50",
"%  c #AA4D5F",
"&  c #A54D5F",
"*  c #BA4659",
"=  c #B44A5C",
"-  c #BA4859",
";  c #BC535F",
":  c #87596E",
">  c #8A586C",
",  c #9B5165",
"<  c #995A6B",
"1  c #875B74",
"2  c #834963",
"3  c #A54F61",
"4  c #A55365",
"5  c #A25D6A",
"6  c #AD5C67",
"7  c #B15C65",
"8  c #8B617B",
"9  c #946171",
"0  c #927478",
"q  c #AB646C",
"w  c #B1636A",
"e  c #BE6E6A",
"r  c #B56869",
"t  c #A8736E",
"y  c #A7726E",
"u  c #B6776E",
"i  c #BB736D",
"p  c #B6786D",
"a  c #BF786C",
"s  c #AD7F78",
"d  c #B17F77",
"f  c #A86770",
"g  c #D0404F",
"h  c #C54454",
"j  c #CD4151",
"k  c #C34A5B",
"l  c #D14050",
"z  c #C0505D",
"x  c #D5565B",
"c  c #D8565A",
"v  c #D65B5F",
"b  c #D95B5E",
"n  c #D65156",
"m  c #DE685F",
"M  c #C24F61",
"N  c #CA5263",
"B  c #CC5E63",
"V  c #C75A67",
"C  c #D45D61",
"Z  c #D05565",
"A  c #C06C6A",
"S  c #C96D67",
"D  c #DC6A65",
"F  c #DA6261",
"G  c #DC7C69",
"H  c #DC7767",
"J  c #C17E73",
"K  c #CA7175",
"L  c #E06A62",
"P  c #E57463",
"I  c #E77965",
"U  c #E97D65",
"Y  c #E37C69",
"T  c #E07769",
"R  c #DE846F",
"E  c #CE9D7F",
"W  c #EB8067",
"Q  c #EC866C",
"!  c #ED8B6E",
"~  c #E2856F",
"^  c #E28A71",
"/  c #EE8E70",
"(  c #EF9471",
")  c #E89D79",
"_  c #F19671",
"`  c #F49C73",
"'  c #EBA67D",
"]  c #F7A378",
"[  c #FAAC7C",
"{  c #F7A175",
"}  c #FCB17E",
"|  c #63678A",
" . c #6E7392",
".. c #707492",
"X. c #767C9D",
"o. c #747DA5",
"O. c #CF7388",
"+. c #D37685",
"@. c #CF7D91",
"#. c #7E84A5",
"$. c #7589B8",
"%. c #6588C1",
"&. c #6687C0",
"*. c #7092CB",
"=. c #6597DB",
"-. c #6897DB",
";. c #769CD7",
":. c #769DD8",
">. c #6EA4EC",
",. c #8789A8",
"<. c #8F92AD",
"1. c #9996AA",
"2. c #868FB7",
"3. c #8792B6",
"4. c #8A94B8",
"5. c #969CBE",
"6. c #999DBD",
"7. c #9397B5",
"8. c #A49EAC",
"9. c #9DA2BE",
"0. c #CE9E80",
"q. c #D48899",
"w. c #D8949F",
"e. c #DC858A",
"r. c #E6928E",
"t. c #FFB781",
"y. c #FFB981",
"u. c #F5B482",
"i. c #D78FA0",
"p. c #D598AA",
"a. c #D696A3",
"s. c #D7A5A5",
"d. c #DEA6AD",
"f. c #CDA7BB",
"g. c #D4A6B9",
"h. c #EAABAB",
"j. c #DFC2BE",
"k. c #8E99C1",
"l. c #8E9CC9",
"z. c #8A96C1",
"x. c #939DC6",
"c. c #96A0C2",
"v. c #9BA1C4",
"b. c #8DA2D5",
"n. c #ABADCD",
"m. c #A4A9C8",
"M. c #ABB0CA",
"N. c #B3B3CF",
"B. c #ABB4D8",
"V. c #B1B7DA",
"C. c #B6BBDB",
"Z. c #BABDDC",
"A. c #B2B7D6",
"S. c #98AFE3",
"D. c #9AB1E5",
"F. c #CFB7CA",
"G. c #CFB9CD",
"H. c #D7B2C4",
"J. c #D8B8C7",
"K. c #CFB9D5",
"L. c #C1BFDB",
"P. c #CEB8D5",
"I. c #CDABC8",
"U. c #E1BEC3",
"Y. c #BBC5E9",
"T. c #CECEDF",
"R. c #C9C4DB",
"E. c #D2D0DE",
"W. c #DBCADC",
"Q. c #E4CAC5",
"!. c #C2C6E6",
"~. c #C7CCE7",
"^. c #CACDE5",
"/. c #C6CBED",
"(. c #CBCEEF",
"). c #C4C7E8",
"_. c #D7CEE4",
"`. c #CAD2ED",
"'. c #D8D9EA",
"]. c #CACEF0",
"[. c #CDD1F1",
"{. c #D2D5F0",
"}. c #D4DAF2",
"|. c #D8DDF4",
" X c #E1DDE2",
".X c #E6E5E9",
"XX c #F9EBEA",
"oX c #F3F5FA",
"OX c #F7F9FD",
"+X c #FCFCFE",
/* pixels */
"                                                                ",
"                      0 s J 0.0.J d 0                           ",
"                    i H ( Q y.y.! _ G A                         ",
"                9 a I I _ Q t.y.! _ U I J 9                     ",
"        0     < B L W I _ Q t.y.! _ U I I C q                   ",
"    P ` u.R ' x b P U I _ Q t.y.! _ U I P C T ) ^ ) L m         ",
"  b W ] } Q [ c C P U I _ ! t.t.! _ U I I v Y [ _ ] I I n       ",
"H ! P ` } ! [ c C P U P _ ~ u.u.^ ( U I I v U [ / ] I U P m     ",
"u Q P ` } Q [ c C P Y A i 6 w q 6 e e H P v Y [ / ] I Y U J     ",
"y U P ` } Q [ c C S w * h l @ @ @ h * 7 S C Y [ / ] I Y U p     ",
"t W P ` t.Q } x 6 4 j @ j j j j @ h h j 4 6 Y [ / ] I I U p     ",
"t W P ! / P ! ; , 3 3 3 3 4 4 4 & 3 3 3 4 , A ! P Q P I U p     ",
"t W L C l l j j h j h = k O.J.J.@.k = h j j j g j @ b D U u     ",
"t Y r C l l l l g g - = q._.g.g._.p.- = # g g g l $ c w H u     ",
"5 P f 9 - - - - - - , N H.a.J.J.i.H.V 4 = * - - - * 5 f D q     ",
". z L w > > > 1 : : > N +.+.'.{.q.+.Z > : : : : 1 > q D B X     ",
"| + B C j j $ $ $ $ 3 M I.f.a.p.p.P.V 3 g j j j j j c B : |     ",
"7.6.+ ; h h h h k $ * 3 K P.P.P.K.O.3 = h h h h h h z + 7.9.    ",
",.T.9.O o o o o o o o o X 1 ,.,.1 2 o o o o o o o o o 7.^.<.    ",
"3.'.E.x......... . ......... . ....... . . . . . . .4.T.'.9.    ",
"4.OX.XN.n.n.n.n.n.n.n.n.n.n.n.n.n.n.n.V.).^.~.~.^.C.m. X+X9.    ",
"3.OX+XR.Z.L.L.7.*.:.:.:.:.:.$.n.L.L.N.7.8.8.8.9.8.1.M.+X+X9.    ",
"3.OX+X`.].{.[.z.=.>.>.>.>.>.%.C.{.[.|.Q.s.h.oXQ.s.Q.}.OX+Xc.    ",
"4.oX+X`.].].].z.=.>.>.>.>.>.%.V.[.].|.r.e.h.XXh.r.XX}.+X+Xc.    ",
"9.}.oX`./.`.{.k.=.>.>.>.>.>.%.V.[.(.[.w.p.W.i.d.e.Q.{.oX|.M.    ",
"7.}.}.Y.!.!.).4.=.>.>.>.>.>.$.B.).!.^.R.f.G.f.F.f.F.Y.{.|.v.    ",
"  C.}.B.5.5.x.o.b.S.S.S.S.D.$.<.6.5.x.9.6.6.6.6.6.6.B.}.Z.#.    ",
"    A.Y./.(.].6.Z.[.(.(.(.[.v.C.(./././././.]./././.Y.V.        ",
"      z.l.l.l.o.o.,.#.#.#.#. .2.l.l.l.l.l.l.l.l.l.l.k.          ",
"                                                                ",
"                                                                ",
"                                                                "
};
