/* XPM */
static char *exit_xpm[] = {
/* columns rows colors chars-per-pixel */
"68 71 13 1 ",
"  c None",
". c #40486F",
"X c #67657C",
"o c #CF4050",
"O c #DB6866",
"+ c #EF8E6C",
"@ c #8F7E8E",
"# c #6DA3EB",
"$ c #FFB881",
"% c #9EAFDF",
"& c #CCCFEF",
"* c #DBE0F4",
"= c #FEFEFE",
/* pixels */
"                                                                    ",
"                                                                    ",
"                           XXXXXXXXXX                               ",
"                        XXX$o$$$$$$o$XXX                            ",
"                      XX+++$o$$$$$$o$+++XX                          ",
"                     X+o+++$o$$$$$$o$+++o+X                         ",
"                   XX++o+++$o$$$$$$o$+++o++XX                       ",
"                  XX+++o+++$o$$$$$$o$+++o+++XX                      ",
"                 XOo+++o+++$o$$$$$$o$+++o+++oOX                     ",
"                XOOo+++o+++$o$$$$$$o$+++o+++oOOX                    ",
"       oXXXXXXXXoOOo+++o+++$o$$$$$$o$+++o+++oOOoXXXXXXXXo           ",
"      o$$$$o$$$ooOOo+++o+++$o$$$$$$o$+++o+++oOOo$$$o$$$o+o          ",
"     o$$$$$o$$$ooOOo+++o+++$o$$$$$$o$+++o+++oOOo$$$o$$$o++o         ",
"    o$$+$$$o$$$ooOOo+++o+++$o$$$$$$o$+++o+++oOOo$$$o$$$o+++o        ",
"   oo$++$$$o$$$ooOOo+++o+++$o$$$$$$o$+++o+++oOOo$$$o$$$o+++oo       ",
"  o$o+++$$$o$$$ooOOo+++o+++$o$$$$$$o$+++o+++oOOo$$$o$$$o+++o+o      ",
" o$$o+++$$$o$$$ooOOo+++o+++$o$$$$$$o$+++o+++oOOo$$$o$$$o+++o++o     ",
"o$$+o+++$$$o$$$ooOOo+++o+++$o$$$$$$o$+++o+++oOOo$$$o$$$o+++o+++o    ",
".+++o+++$$$o$$$ooOOo+++o+++XXXXXXXXXX+++o+++oOOo$$$o$$$o+++o+++.    ",
".+++o+++$$$o$$$ooOOo+++oXXXooooooooooXXXo+++oOOo$$$o$$$o+++o+++.    ",
".+++o+++$$$o$$$ooOOo++XXooooooooooooooooXX++oOOo$$$o$$$o+++o+++.    ",
".+++o+++$$$o$$$ooOOo+XooooooooooooooooooooX+oOOo$$$o$$$o+++o+++.    ",
".+++o+++$$$o$$$ooOOXXooooooooooooooooooooooXXOOo$$$o$$$o+++o+++.    ",
".+++o+++$$$o$$$ooOXXooooooooooooooooooooooooXXOo$$$o$$$o+++o+++.    ",
".+++o+++$$$o$$$ooXooooooooooooooooooooooooooooXo$$$o$$$o+++o+++.    ",
".+++o+++$$$o$$$oXXXXXXXXXXXXXXXXXXXXXXXXXXXXXXXX$$$o$$$o+++o+++.    ",
".+++o++OooooooooooooooooooooooooooooooooooooooooooooooooO++o+++.    ",
".+++o+OOoooooooooooooooooXoooo&**&ooooXoooooooooooooooooOO+o+++.    ",
".+++oOOOooooooooooooooooXooo&******&oooXooooooooooooooooOOOo+++.    ",
".+++oOOOoooooooooooooooXooo**********oooXoooooooooooooooOOOo+++.    ",
".++OXXOOoooooooooooooooXoo&**&oooo&**&ooXoooooooooooooooOOXXO++.    ",
".+OOOXXOooooooooooooooXooo**&o+**+o&**oooXooooooooooooooOXXOOO+.    ",
".OOOOOXXooooooooooooooXoo&**o+****+o**&ooXooooooooooooooXXOOOOO.    ",
".oOOOOOXXXXXXXXXXXXXXXXooOOOo******oOOOooXXXXXXXXXXXXXXXXOOOOOo.    ",
".XoOOOOOXXXXXXXXXXXXXXXoooooo&&&&&&ooooooXXXXXXXXXXXXXXXOOOOOoX.    ",
"..XoOOOOooooooooooooooXoo&&&o+&&&&+o&&&ooXooooooooooooooOOOOoX..    ",
".@.XoOOOooooooooooooooXooo&&&o+&&+o&&&oooXooooooooooooooOOOoX.@.    ",
".%@.XoOOoooooooooooooooXoo&&&&oooo&&&&ooXoooooooooooooooOOoX.@%.    ",
".*%@.XoOoooooooooooooooXooo&&&&&&&&&&oooXoooooooooooooooOoX.@%*.    ",
".=*%@.XoooooooooooooooooXooo&&&&&&&&oooXoooooooooooooooooX.@%*=.    ",
".@=*%@.XXXXXXXXXXXXXXXXXXXoooO&&&&OoooXXXXXXXXXXXXXXXXXXX.@%*=@.    ",
".%@=*%@..................................................@%*=@%.    ",
".%=@=*%XXXXXXXXXXXXXXXXXXXXXXXXXXXXXXXXXXXXXXXXXXXXXXXXXX%*=@=%.    ",
".%==@=*%XXXXXXXXXXXXXXXXXXXXXXXXXXXXXXXXXXXXXXXXXXXXXXXX%*=@==%.    ",
".%===@=%%%%%%%%%%%%%%%%%%%%%%%%%%%%%%%%%%%%%%%%%%%%%%%%%%=@===%.    ",
".%====@%&&&&&&&&&&&&&&&&&&&&&&&&&&&&&&&&&&&&&&&&&&&&&&&&%@====%.    ",
".%=====@@@@@@@@@@@@@@@@@@@@@@@@@@@@@@@@@.**==========**.@=====%.    ",
".%=====%&&&&&&&&.##############.&&&&&&&&.@@@@@@@@@@@@@@.%=====%.    ",
".%=====%&&&&&&&&.##############.&&&&&&&&=XXXXXXXXXXXXXX=%=====%.    ",
".%=====%&&&&&&&&.##############.&&&&&&&&================%=====%.    ",
".%=====%&&&&&&&&.##############.&&&&&&&&=$OOO$====$OOO$=%=====%.    ",
".%=====%&&&&&&&&.##############.&&&&&&&&=OO=OO====OO$===%=====%.    ",
".%=====%&&&&&&&&.##############.&&&&&&&&=OO=OO====OO====%=====%.    ",
".*%====%&&&&&&&&.##############.&&&&&&&&*oooo**oo*oo$***%====%*.    ",
".**%===%&&&&&&&&.##############.&&&&&&&&*oo****oo*$ooo$*%===%**.    ",
".***%==%&&&&&&&&.##############.&&&&&&&&****************%==%***.    ",
".&***%=%&&&&&&&&.##############.&&&&&&&&**oo*o*oo*o*oo**%=%***&.    ",
".&&***%%&&&&&&&&.##############.&&&&&&&&****************%%***&&.    ",
" .&&***%.........%%%%%%%%%%%%%%.........................%***&&.     ",
"  .&&**%&&&&&&&&.%%%%%%%%%%%%%%.&&&&&&&&&&&&&&&&&&&&&&&&%**&&.      ",
"   .&&*%&&&&&&&&.&&&&&&&&&&&&&&.&&&&&&&&&&&&&&&&&&&&&&&&%*&&.       ",
"    .&&%&&&&&&&&.&&&&&&&&&&&&&&.&&&&&&&&&&&&&&&&&&&&&&&&%&&.        ",
"     .&%%%%%%%%%.**************.%%%%%%%%%%%%%%%%%%%%%%%%%&.         ",
"      .%%%%%%%%%................%%%%%%%%%%%%%%%%%%%%%%%%%.          ",
"       ..................................................           ",
"                                                                    ",
"                                                                    ",
"                                                                    ",
"                                                                    ",
"                                                                    ",
"                                                                    "
};
