/* XPM */
static char *player_xpm[] = {
/* columns rows colors chars-per-pixel */
"32 32 51 1 ",
"  c None",
". c #333F2B",
"X c gray19",
"o c #303130",
"O c #353333",
"+ c #3A3938",
"@ c #7E1D1D",
"# c #6F1E20",
"$ c #4E2828",
"% c #463735",
"& c #423A3A",
"* c #513A37",
"= c #3A5625",
"- c #3B5725",
"; c #4C433E",
": c #487223",
"> c #1D536E",
", c #555956",
"< c #5F7E4A",
"1 c #796356",
"2 c #667857",
"3 c #4C6A79",
"4 c #841A1A",
"5 c #B40E0E",
"6 c #9D3213",
"7 c #8B2727",
"8 c #843733",
"9 c #CE1313",
"0 c #E50101",
"q c #F41D1D",
"w c #C2342E",
"e c #CF551B",
"r c #B45548",
"t c #927161",
"y c #877D78",
"u c #A37D69",
"i c #DC4E4B",
"p c #4B9315",
"a c #52AB0F",
"s c #958458",
"d c #A8806C",
"f c #AB836E",
"g c #AF8670",
"h c #B08872",
"j c #CA977D",
"k c #166790",
"l c #206181",
"z c #44728A",
"x c #DFA789",
"c c #B4DF96",
"v c #EED3CD",
/* pixels */
"                                ",
"                                ",
"                                ",
"                                ",
"                                ",
"                                ",
"                                ",
"                                ",
"                                ",
"                                ",
"              <y74              ",
"             2cvq0@             ",
"            #6ei95$             ",
"             8wr*%XX            ",
"             1hxgf+             ",
"             ;dju3l             ",
"              O&tzk             ",
"              =:s,>             ",
"              -ap=              ",
"                                ",
"                                ",
"                                ",
"                                ",
"                                ",
"                                ",
"                                ",
"                                ",
"                                ",
"                                ",
"                                ",
"                                ",
"                                "
};
