/* XPM */
static char *player2_xpm[] = {
/* columns rows colors chars-per-pixel */
"32 32 141 2 ",
"   c None",
".  c #2E2E2F",
"X  c #322E2D",
"o  c #3C2B2B",
"O  c #31342F",
"+  c #323C2B",
"@  c #2F2E30",
"#  c #302F30",
"$  c #2D3131",
"%  c #303030",
"&  c #393634",
"*  c #3A3836",
"=  c #393B38",
"-  c #741F1F",
";  c #791E1E",
":  c #4D2929",
">  c #432B2B",
",  c #542727",
"<  c #5C2626",
"1  c #5C2E2C",
"2  c #443D3A",
"3  c #4E3E3E",
"4  c #642323",
"5  c #692222",
"6  c #7C2221",
"7  c #3C651E",
"8  c #36452A",
"9  c #384E29",
"0  c #3A5B23",
"q  c #44781D",
"w  c #4C433E",
"e  c #424037",
"r  c #2B3D46",
"t  c #2B3F48",
"y  c #274655",
"u  c #254758",
"i  c #1E5C7B",
"p  c #1F5977",
"a  c #234F66",
"s  c #215068",
"d  c #4D4D4D",
"f  c #554943",
"g  c #5C4E46",
"h  c #544742",
"j  c #585858",
"k  c #604E49",
"l  c #64534B",
"z  c #7E574C",
"x  c #765F53",
"c  c #626440",
"v  c #7D6456",
"b  c #605F62",
"n  c #79716D",
"m  c #8C1919",
"M  c #9A1515",
"N  c #BD0E0E",
"B  c #B60F0F",
"V  c #A71313",
"C  c #B01010",
"Z  c #8D2624",
"A  c #DF0404",
"S  c #E40303",
"D  c #EC0101",
"F  c #EF0B09",
"G  c #F30000",
"H  c #F30D0A",
"J  c #F23939",
"K  c #9B470C",
"L  c #BB5B06",
"P  c #B36100",
"I  c #A87500",
"U  c #8A6C5D",
"Y  c #8F705F",
"T  c #977563",
"R  c #997664",
"E  c #A47E6A",
"W  c #E7604F",
"Q  c #D27D67",
"!  c #F26263",
"~  c #498B17",
"^  c #4A9316",
"/  c #4E9C13",
"(  c #53B20D",
")  c #4FA012",
"_  c #55AA12",
"`  c #5BCB06",
"'  c #59C608",
"]  c #57C901",
"[  c #5DD504",
"{  c #5ED803",
"}  c #6BD31D",
"|  c #61E400",
" . c #62E801",
".. c #6AE410",
"X. c #6D8D55",
"o. c #7D956A",
"O. c #85E63D",
"+. c #AC836E",
"@. c #A7806B",
"#. c #BD8E76",
"$. c #B48872",
"%. c #BF9078",
"&. c #C3937A",
"*. c #C8967C",
"=. c #CB997E",
"-. c #E2967B",
";. c #F49478",
":. c #8EE84A",
">. c #1C6285",
",. c #20678A",
"<. c #1472A1",
"1. c #107CB3",
"2. c #098CCE",
"3. c #0693DB",
"4. c #039BE7",
"5. c #019EED",
"6. c #0497E1",
"7. c #00A1F2",
"8. c #979698",
"9. c #DF8585",
"0. c #D29D81",
"q. c #F28E8E",
"w. c #DFA587",
"e. c #E5AA8B",
"r. c #EBAE8E",
"t. c #EFB08F",
"y. c #F4B392",
"u. c #F9B794",
"i. c #BFED9D",
"p. c #C2F09F",
"a. c #C2EDA3",
"s. c #D0DEC5",
"d. c #DFDFDF",
"f. c #D6F0C3",
"g. c #DFF1D1",
"h. c #DFE3E3",
"j. c #E7E7E8",
"k. c #E8F1E1",
"l. c #F0F2EE",
"z. c #F1EEF2",
"x. c #F2F4F4",
/* pixels */
"                                                                ",
"                  $ $ $ % $ $ . . . . . @ #                     ",
"                : < < < : : : 3 d d d d 9 8                     ",
"            $ $ 6 D D S S A A 9.h.d.d.s.} ] 7 .                 ",
"            4 6 V D G G G G G q.x.x.x.g.:.O.X.b j               ",
"        % X B G G G G G G G G q.x.x.x.x.l.l.z.z.8.@ %           ",
"        % X N G G G G G G G G q.x.x.x.k.a.i.i.p.o.@ @           ",
"        % X N G D G G G D G G q.x.x.x.f...| | | ^ $ $ $ $       ",
"    % % $ # < 5 C G G G G G G J ! ! ! W L P I I K m m m m :     ",
"    % % % % $ $ m S S S S S D D D D G G G G G G G G G G S : $   ",
"    % % # % % % > , , , , , 4 4 4 M G G G G G G V ; ; ; - o .   ",
"    % # % % % % % $ % $ $ $ $ = = Z H H S S F H 6 $ $ $ $       ",
"  % % % X % % % . . . . . @ & E 0.-.;.Q 1 1 Q ;.z . % . @       ",
"  X $ @ % $ % % w g g g f % % #.u.y.y.0.= & *.y.v . O           ",
"        % $ % % +.r.r.r.&.& $ #.y.y.y.#.% & *.y.v . %           ",
"        . X % % $.u.y.y.0.v x 0.y.y.y.&.l l 0.y.v . #           ",
"            X * *.u.y.y.y.y.r.y.y.y.y.r.t.r.y.y.v # $           ",
"        X y >.>.n T T T +.r.y.y.y.t.y.y.y.t.#.+.l # %           ",
"      % X y 4.4.u . $ @ g r.u.y.u.y.y.y.y.e.f # O # #           ",
"      X X a 5.5.1.<.u . 2 Y T T T T T T T U * # # # #           ",
"      % X a 5.7.5.7.>.X % # X @ @ @ . . # # # O                 ",
"      % X a 5.6.i s n E E E R 2 . $ % # # # # #                 ",
"      % X a 5.3.r X E u.y.y.e.w @ $ X % # O $ #                 ",
"      % X p 7.3.r O +.y.t.y.e.w . $ % $ # # # #                 ",
"      % X i 4.2.t % $.e.e.r.=.e O O O O % %                     ",
"          t y y $ % w f h k c _ ( ( ( q $ %                     ",
"            X . % % + + + + 0 [  . . .^ O #                     ",
"                % % / ` ' ' ` | | |  .^ # #                     ",
"                # O ) ` ` [ [ [ [ [ [ ~ % %                     ",
"                    + 8 8 9 9 9 9 9 9 8                         ",
"                    # % . . @ @ @ @ X X                         ",
"                                                                "
};
