/* XPM */
static char *player_xpm[] = {
/* columns rows colors chars-per-pixel */
"32 32 142 2 ",
"   c None",
".  c #2E2E2F",
"X  c #322E2D",
"o  c #3C2B2B",
"O  c #31342F",
"+  c #323C2B",
"@  c #2F2E30",
"#  c #302F30",
"$  c #2D3131",
"%  c #303030",
"&  c #393634",
"*  c #3A3836",
"=  c #393B38",
"-  c #741F1F",
";  c #791E1E",
":  c #4D2929",
">  c #432B2B",
",  c #542727",
"<  c #5C2626",
"1  c #502828",
"2  c #5C2E2C",
"3  c #443D3A",
"4  c #4E3E3E",
"5  c #642323",
"6  c #692222",
"7  c #7C2221",
"8  c #3C651E",
"9  c #36452A",
"0  c #384E29",
"q  c #3A5B23",
"w  c #44781D",
"e  c #4C433E",
"r  c #424037",
"t  c #2B3D46",
"y  c #2A3E48",
"u  c #274655",
"i  c #254758",
"p  c #1E5C7B",
"a  c #1F5977",
"s  c #234F66",
"d  c #215068",
"f  c #4D4D4D",
"g  c #554943",
"h  c #5C4E46",
"j  c #544742",
"k  c #585858",
"l  c #604E49",
"z  c #64534B",
"x  c #7E574C",
"c  c #765F53",
"v  c #626440",
"b  c #7D6456",
"n  c #605F62",
"m  c #79716D",
"M  c #8C1919",
"N  c #9A1515",
"B  c #BD0E0E",
"V  c #B60F0F",
"C  c #A71313",
"Z  c #B01010",
"A  c #8D2624",
"S  c #DF0404",
"D  c #E40303",
"F  c #EC0101",
"G  c #EF0B09",
"H  c #F30000",
"J  c #F30D0A",
"K  c #F23939",
"L  c #9B470C",
"P  c #BB5B06",
"I  c #B36100",
"U  c #A87500",
"Y  c #8A6C5D",
"T  c #8F705F",
"R  c #977563",
"E  c #997664",
"W  c #A47E6A",
"Q  c #E7604F",
"!  c #D27D67",
"~  c #F26263",
"^  c #498B17",
"/  c #4A9316",
"(  c #4E9C13",
")  c #53B20D",
"_  c #4FA012",
"`  c #55AA12",
"'  c #5BCB06",
"]  c #59C608",
"[  c #57C901",
"{  c #5DD504",
"}  c #5ED803",
"|  c #6BD31D",
" . c #61E400",
".. c #62E801",
"X. c #6AE410",
"o. c #6D8D55",
"O. c #7D956A",
"+. c #85E63D",
"@. c #AC836E",
"#. c #A7806B",
"$. c #BD8E76",
"%. c #B48872",
"&. c #BF9078",
"*. c #C3937A",
"=. c #C8967C",
"-. c #CB997E",
";. c #E2967B",
":. c #F49478",
">. c #8EE84A",
",. c #1C6285",
"<. c #20678A",
"1. c #1472A1",
"2. c #107CB3",
"3. c #098CCE",
"4. c #0693DB",
"5. c #039BE7",
"6. c #019EED",
"7. c #0497E1",
"8. c #00A1F2",
"9. c #979698",
"0. c #DF8585",
"q. c #D29D81",
"w. c #F28E8E",
"e. c #DFA587",
"r. c #E5AA8B",
"t. c #EBAE8E",
"y. c #EFB08F",
"u. c #F4B392",
"i. c #F9B794",
"p. c #BFED9D",
"a. c #C2F09F",
"s. c #C2EDA3",
"d. c #D0DEC5",
"f. c #DFDFDF",
"g. c #D6F0C3",
"h. c #DFF1D1",
"j. c #DFE3E3",
"k. c #E7E7E8",
"l. c #E8F1E1",
"z. c #F0F2EE",
"x. c #F1EEF2",
"c. c #F2F4F4",
/* pixels */
"                                                                ",
"                    @ @ @ @ . @ . $ $ $ $ $ $                   ",
"                    9 0 f f f f 4 : : : < < < :                 ",
"                @ 8 [ | d.f.f.j.0.S S D D F F - $ $             ",
"              k n o.>.>.h.c.c.c.w.H H H H H H C 7 6             ",
"          % . 9.x.x.l.z.c.c.c.c.w.H H H H H H H H V % $         ",
"          @ . O.a.p.p.s.l.c.c.c.w.H H H H H H H H B o %         ",
"      $ $ $ @ / .. . .X.g.c.c.c.w.H H H F H H F H B % %         ",
"    : M M M M L U U I P Q ~ ~ ~ K H H H H H H Z 6 < % % % %     ",
"  $ : S H H H H H H H H F H H F F F D D D D D M $ $ % % % @     ",
"  . o 6 ; ; ; C H H H H H H N 5 6 5 , , , , , > $ % % % % %     ",
"      % $ $ $ 7 J J D F G G A = = $ $ $ $ $ $ @ $ . $ X $ %     ",
"      X @ % . x :.! 2 2 ! :.;.q.W & $ . . . . @ % % % % X O @   ",
"          % . b i.-.& * q.u.u.i.&.% % g h h h e % @ % # @ # .   ",
"          % . b u.=.& % $.u.u.u.$.% * *.t.t.t.@.% % # #         ",
"          % . b u.q.z z &.u.u.u.-.c b q.u.u.i.%.% % O .         ",
"          . . Y u.u.t.t.y.u.u.u.u.y.y.u.u.u.i.=.& X             ",
"          . . z @.$.y.u.u.y.u.u.u.u.y.@.R R R m ,.,.y X         ",
"          % % % % g r.u.u.u.u.u.u.u.t.h . . . i 6.5.u O %       ",
"          . . % % * Y E R R R R E E T 3 . i 1.2.6.6.s X %       ",
"                % % . . . . . @ # . @ @ . ,.8.8.8.6.s X %       ",
"                % % % % $ % % X 3 E W W W m d a 7.6.s X %       ",
"                % % % % % % # . j r.u.u.i.W X t 4.6.s X %       ",
"                . . % % # # # X e e.u.u.i.@.X t 4.8.a X %       ",
"                    % % O O O O 3 -.y.r.r.%.O u 3.5.p X $       ",
"                    % # w ) ) ) ` v l j e e X % u u y           ",
"                    % # / ......} q + + + + % % X X             ",
"                    % X / .. . . .' ] ] ' ( O %                 ",
"                    % $ ^ { { { { { { ' ' _ % %                 ",
"                        9 0 0 0 0 0 0 9 9 +                     ",
"                        # # @ @ @ @ X X # #                     ",
"                                                                "
};
