/* XPM */
static char *wall_xpm[] = {
/* columns rows colors chars-per-pixel */
"32 32 233 2 ",
"   c None",
".  c gray12",
"X  c #202122",
"o  c #222222",
"O  c #212024",
"+  c #222324",
"@  c #232324",
"#  c #232424",
"$  c #232425",
"%  c #252524",
"&  c #242626",
"*  c #252626",
"=  c #242726",
"-  c #252726",
";  c #252727",
":  c #262627",
">  c #252925",
",  c #252827",
"<  c #262B26",
"1  c #262C26",
"2  c #272D27",
"3  c #292529",
"4  c #2D2729",
"5  c #2D272A",
"6  c #252928",
"7  c #252A28",
"8  c #262A28",
"9  c #272C28",
"0  c #282828",
"q  c #2C2928",
"w  c #2D2829",
"e  c #2F2A28",
"r  c #2F292B",
"t  c #282E29",
"y  c #282C2A",
"u  c #282E2A",
"i  c #292F2A",
"p  c #292F2D",
"a  c #302C29",
"s  c #312C2A",
"d  c #322D2A",
"f  c #332E2A",
"g  c #342F28",
"h  c #30292C",
"j  c #29322A",
"k  c #2B352B",
"l  c #2C352A",
"z  c #2D392E",
"x  c #2F3E2F",
"c  c #363129",
"v  c #39322A",
"b  c #3A332A",
"n  c #3E352B",
"m  c #3C342F",
"M  c #303B2C",
"N  c #303D2E",
"B  c #342B30",
"V  c #2C3430",
"C  c #2C3431",
"Z  c #2D3632",
"A  c #2D3732",
"S  c #2D3633",
"D  c #2D3830",
"F  c #2E3930",
"G  c #2F3E31",
"H  c #323232",
"J  c #343233",
"K  c #3C3232",
"L  c #3C3135",
"P  c #3D3135",
"I  c #303E30",
"U  c #303E31",
"Y  c #313E34",
"T  c #313E36",
"R  c #323F36",
"E  c #4B3F2D",
"W  c #413732",
"Q  c #433832",
"!  c #473B35",
"~  c #483C35",
"^  c #473938",
"/  c #324130",
"(  c #324331",
")  c #324135",
"_  c #324235",
"`  c #374832",
"'  c #374C36",
"]  c #374C37",
"[  c #384D36",
"{  c #33403A",
"}  c #384C3D",
"|  c #394D3D",
" . c #3A4F3E",
".. c #3A4F3F",
"X. c #395038",
"o. c #3B5239",
"O. c #3D523A",
"+. c #3D583F",
"@. c #50422F",
"#. c #4E4038",
"$. c #554630",
"%. c #564633",
"&. c #504234",
"*. c #58463B",
"=. c #5E4C3B",
"-. c #5A483C",
";. c #40573C",
":. c #40593C",
">. c #644D3F",
",. c #654F3F",
"<. c #64503D",
"1. c #6D5739",
"2. c #745B3D",
"3. c #4C3A40",
"4. c #394A43",
"5. c #394B43",
"6. c #3D5244",
"7. c #3C5344",
"8. c #3D5344",
"9. c #3D5444",
"0. c #3D5544",
"q. c #3F5845",
"w. c #534041",
"e. c #5A414B",
"r. c #5C434C",
"t. c #405C45",
"y. c #415E46",
"u. c #425F46",
"i. c #425F47",
"p. c #61484A",
"a. c #664E4A",
"s. c #6C5441",
"d. c #775D49",
"f. c #785E49",
"g. c #426046",
"h. c #436146",
"j. c #426047",
"k. c #436346",
"l. c #436347",
"z. c #446447",
"x. c #446547",
"c. c #466348",
"v. c #466548",
"b. c #476749",
"n. c #476948",
"m. c #476B48",
"M. c #476C49",
"N. c #486B49",
"B. c #4B6A4A",
"V. c #4A6C4A",
"C. c #497049",
"Z. c #497149",
"A. c #4B714B",
"S. c #4A724A",
"D. c #4A734A",
"F. c #4D734B",
"G. c #4A744A",
"H. c #4B754A",
"J. c #4F724C",
"K. c #4E734C",
"L. c #4E784C",
"P. c #4E794C",
"I. c #4F7A4C",
"U. c #4F7B4C",
"Y. c #4F7B4D",
"T. c #507B4C",
"R. c #517A4D",
"E. c #507C4C",
"W. c #507C4D",
"Q. c #537F4E",
"!. c #537E4F",
"~. c #537F4F",
"^. c #567E50",
"/. c #7E6142",
"(. c #7E6243",
"). c #7E6345",
"_. c #7B604A",
"`. c #7E604A",
"'. c #816444",
"]. c #846744",
"[. c #88694A",
"{. c #8E6E49",
"}. c #8F6E4B",
"|. c #906F4A",
" X c #906F4B",
".X c #926F4A",
"XX c #926F4B",
"oX c #91704B",
"OX c #92714B",
"+X c #93714B",
"@X c #95714B",
"#X c #96744A",
"$X c #9B774A",
"%X c #9C774A",
"&X c #9E794B",
"*X c #9F7A4B",
"=X c #A27C4A",
"-X c #A67F4B",
";X c #54814F",
":X c #54834F",
">X c #55844F",
",X c #558550",
"<X c #568650",
"1X c #598752",
"2X c #598A51",
"3X c #5A8A51",
"4X c #5A8B51",
"5X c #5A8B52",
"6X c #5A8C52",
"7X c #5B8C52",
"8X c #5B8D52",
"9X c #5C8E53",
"0X c #5D8F53",
"qX c #5E8D54",
"wX c #5E8E54",
"eX c #5D9053",
"rX c #609455",
"tX c #619655",
"yX c #639856",
"uX c #649B57",
"iX c #669D57",
"pX c #679E57",
"aX c #669E58",
"sX c #679F58",
"dX c #6AA459",
"fX c #6AA45A",
"gX c #6BA45A",
"hX c #6BA55A",
"jX c #6BA65A",
"kX c #6CA65A",
"lX c #6CA75A",
"zX c #6CA75B",
"xX c #B0864A",
/* pixels */
"                                                                ",
"                                                                ",
"                                                                ",
"                          > l N M l t                           ",
"                        > X.3XsXpX3Xg.G                         ",
"                      1 X.qXhXhXhXsX;XC.I                       ",
"                      ( 6XjXhXhXgX6XP.H.] 1                     ",
"                    O :.jXjXhXsX3X6X;XA.H.x                     ",
"              N ` ` O.J.9XsXsX3X6X>XH.H.M.z                     ",
"            ] 3XjXgXjXqXc.R.1X,X>XC.H.M.8.S $                   ",
"          [ 3XgXgXjXjXjX9Xb.n.H.H.H.M.q.c.B.:./ 9               ",
"        j Y.gXgXjXgXjXgXzX,Xq.H.G.M.q.J.pXhXjXeXo.1             ",
"        j E.jXjXgXjXhXhXgXJ.0.l.g.7.V.uXjXjXjXrXY.) -           ",
"        t n.rXjXhXpXrXgXE. .{ 5.5.7.2XlXjXlXrX6XY.g.9           ",
"        - R n.9XqX;XA.E.6.9 8 S A +.>XpXlXrX6X6XY.V.k           ",
"          - ) y.g.q.6. .9 . r L q ) M.;XeXU.>XU.A.k.j           ",
"            - S V V S J B 5 3.r.L 9  .n.v.n.l.M.l.R ;           ",
"                  . e <.f.s.r.p.3.r 8 } j.g.j.g.) $             ",
"                    f *..X.Xa.f.oXs.^ J G D I D ;               ",
"                      4 *..X#X=X*X<.K r                         ",
"                        s =.$XxX2.s                             ",
"                          W {.*X&.                              ",
"                          Q oXoX!                               ",
"                        . &.xXoX~ o                             ",
"                      # m '.&X_.).$.O                           ",
"                    O @.(.d.f.[.oX].&.O                         ",
"                  q ; c n s #.{.1.b c ; q                       ",
"                  8   $ $ # 0 b g # ;   q                       ",
"                    q q     - $ -     q                         ",
"                          q 3   0 0 8                           ",
"                                                                ",
"                                                                "
};
